<?xml version="1.0" encoding="UTF-8"?>
<svg width="443.68mm" height="443.68mm" version="1.1" viewBox="0 0 443.68 443.68" xml:space="preserve" xmlns="http://www.w3.org/2000/svg"><g transform="translate(-612.73 177.07)"><path d="m743.09-98.636c-0.61997 0.012789-1.2618 0.06065-1.9255 0.1478-4.9989 0.65643-12.649 2.6627-19.554 4.6798-3.4529 1.0085-6.6994 2.0189-9.2795 2.867-2.5802 0.84814-4.3723 1.4683-5.3986 1.9415-3.6294 1.6733-5.9613 5.3674-9.0837 11.174-3.0367 5.6473-7.7274 13.654-12.637 20.424-5.8422 8.0552-15.57 21.903-18.902 29.437-2.9542 6.6787-6.053 15.18-2.8732 29.143 0.55657 2.4438 0.15903 3.7344-0.49402 5.703-0.53325 1.6074-0.95761 3.5968-0.65629 5.6658 0.11884 0.81602-0.02788 4.0414 1.9317 7.0197 1.8659 2.8359 5.5563 5.2376 12.168 6.2777 1.3055 1.9028 4.7525 6.6882 9.6976 11.785 6.3892 6.5849 15.324 13.845 25.864 16.148 14.679 3.2076 25.414 0.95992 32.437-2.1931 4.6567-2.0906 7.75-4.6394 9.3059-6.1195 0.45547 0.3219 0.92075 0.63276 1.3937 0.92501-0.01542 0.4468-0.02334 0.8943-0.02377 1.342 0 5.0851 0.98565 10.123 2.8686 14.835 1.9936 4.862 4.9398 9.2794 8.6553 12.994 7.374 7.393 17.393 11.533 27.832 11.505 5.0927 0.0131 10.134-0.97006 14.852-2.8866 4.8748-1.9686 9.3066-4.8961 13.021-8.6181l0.12971-0.13436 9.2072-10.024-11.131-11.999-9.8511 10.769c-4.3274 4.2564-10.156 6.6345-16.224 6.6099-12.669-2e-3 -22.938-10.293-22.914-22.968 0-6.0961 2.3995-11.944 6.7241-16.257 4.2817-4.284 10.11-6.7059 16.19-6.7272 6.0676-0.0324 11.897 2.3461 16.224 6.6017l20.171 21.93 20.163 21.939 0.08113 0.12609 0.12919 0.13436c3.7155 3.7206 8.1469 6.6484 13.021 8.6186 4.7204 1.908 9.7617 2.8796 14.853 2.8613 5.0907 0.0142 10.139-0.95655 14.861-2.8613 4.858-1.9766 9.2668-4.9041 12.971-8.6186 3.7154-3.7147 6.6621-8.132 8.6558-12.994 1.7788-4.4398 2.7454-9.1601 2.8572-13.937 15.026 9.7974 34.526 7.3176 49.206 1.2955 15.274-6.2659 23.916-20.968 25.301-23.451 1.7298-0.14336 6.154-0.72906 10.393-5.1211 3.1843-3.2995 3.3063-8.0989 3.0231-12.105-0.1415-2.0031-0.4269-3.8599-0.6542-5.301-0.1136-0.72051-0.2134-1.3396-0.2713-1.787-0.0423-0.32605-0.0381-0.61241-0.0465-0.6351l-5e-4 -5.168e-4v-5.168e-4h-6e-4c0.0578-0.30928 0.2479-1.1939 0.4718-2.2877 0.2563-1.2519 0.56-2.8801 0.7969-4.8007 0.4736-3.8412 0.6831-8.8604-0.2718-14.481-1.0182-5.9925-4.9799-13.523-8.955-20.26-3.9751-6.7364-8.0098-12.539-9.1974-14.246-2.1244-3.0533-11.383-18.6-13.518-23.738-2.6502-6.3781-7.6578-9.2891-9.3121-10.371-0.62354-0.40778-1.0862-0.56845-1.8691-0.88883-0.783-0.32038-1.7668-0.69802-2.8985-1.1172-2.2635-0.83845-5.1157-1.8428-8.0042-2.8381-5.7769-1.9905-11.565-3.9035-13.269-4.3982-2.0673-0.60009-4.8971-0.70711-7.953-0.56069-3.0559 0.14642-6.1189 0.53083-8.4786 1.635-2.0743 0.97068-3.4939 2.4009-4.5858 4.2478-1.0919 1.8469-2.1378 4.184-4.3868 8.0724-4.9474 8.5537-3.9424 16.242-1.8753 20.289 0.56849 1.1129 1.4328 1.8085 2.3802 2.2991-0.04455 0.051389-0.08927 0.10306-0.13384 0.15555-1.4979 1.7638-3.1972 4.2224-3.1972 7.3184 0 2.7081 0.77195 5.1499 2.3006 7.0394 1.5287 1.8894 3.6977 3.1729 6.256 4.0488 2.7842 0.95332 6.4476 1.0081 9.3524-1.2263 7.4651 2.05 13.445 0.6186 17.444-1.4123 2.4776-1.2581 4.2676-2.7779 5.2896-3.775 1.6164 0.32348 2.568 0.39724 3.2396 0.47026 0.6153 1.2975 2.936 6.33 2.8226 10.31-0.0471 1.6535-1.0632 5.2979-1.9415 9.4139-0.87823 4.116-1.6007 8.8719-0.709 13.574 0.21258 1.121 0.56213 2.2206 1.0149 3.2928-5.3517-3.0896-11.489-5.6245-17.568-5.6544-2.4214-0.01193-4.8341 0.37339-7.1835 1.2795-14.329 5.5265-20.467 18.995-22.255 23.816-0.63633-0.010969-1.251 0.018888-1.8438 0.084233-3.4698 0.38244-6.185 1.972-8.016 3.6349-0.86831 0.78857-1.5708 1.6086-2.1156 2.3384-5.5489-2.8756-11.758-4.4081-18.124-4.3909v-5.168e-4c-5.0927-0.0131-10.134 0.9618-14.852 2.8784-4.8748 1.9686-9.307 4.9044-13.021 8.6263l-0.12919 0.12661-9.2072 10.024 11.131 11.998 9.8516-10.768c4.3273-4.2564 10.156-6.6263 16.224-6.6017 12.669 2e-3 22.938 10.293 22.914 22.968 0 6.0961-2.399 11.944-6.7236 16.257-4.2818 4.284-10.111 6.6971-16.191 6.7185-6.0675 0.0324-11.897-2.3373-16.224-6.5929l-20.171-21.939-20.163-21.93-0.08062-0.13436-0.12971-0.12661c-3.7154-3.7206-8.1469-6.6562-13.021-8.6263-4.7205-1.908-9.7613-2.8801-14.852-2.8618-5.0907-0.0142-10.139 0.95708-14.861 2.8618-1.8846 0.76683-3.7019 1.6779-5.4364 2.7228a2.2415 2.2415 0 0 0-0.12351-0.75293s-0.74941-2.1392-2.7616-3.9625c-1.7452-1.5813-4.6375-2.8797-8.4687-2.805-1.495-3.7917-8.7939-20.399-24.883-24.121-9.7445-2.2541-19.074 1.4177-26.219 5.6953 1.0839-2.7105 1.7808-5.7224 1.6898-8.955-0.31748-11.284-2.5911-16.384-2.2479-19.653 0.29606-2.8203 1.4734-6.0903 2.0996-7.752 1.7024 0.039668 4.4127-0.092768 7.5892-0.97048 0.91693 0.9503 2.4115 2.2511 4.4907 3.2871 3.6965 1.842 9.3763 2.9277 16.886 0.57929 4.3525 3.4758 11.258 3.0022 14.767-1.6474 1.9562-2.5921 2.6413-5.7542 2.5761-8.6176-0.04742-2.0792-0.41508-4.0359-1.3084-5.6493 1.6505-1.0116 3.0917-2.6967 3.6912-4.9423 2.0434-7.6538-1.0722-14.677-1.3937-15.371l-3.5398-9.264a2.2417 2.2417 0 0 0-0.12506-0.26975s-3.8704-6.6691-11.951-7.4021c-0.5772-0.052361-1.1753-0.074801-1.7952-0.062012zm0.0956 4.4731c6.897-0.23464 9.5317 4.7958 9.6588 5.0457l3.5057 9.1741a2.2417 2.2417 0 0 0 0.06666 0.15193s2.7957 6.1964 1.1482 12.367c-0.32366 1.2123-0.89879 1.8198-1.8045 2.3363-0.90574 0.51648-2.1852 0.82248-3.5021 0.92346-0.8288 0.06355-1.6505 0.050765-2.3874 0.0031 2.4051-6.4215 1.3551-13.438-1.0635-18.794a2.2415 2.2415 0 0 0-1.2501-1.1741 2.2415 2.2415 0 0 0-1.7151 0.054777 2.2415 2.2415 0 0 0-1.1209 2.9647c2.315 5.1264 3.0402 12.047-0.09818 17.623a2.2415 2.2415 0 0 0-0.03721 0.065629c-0.15113 0.26542-0.31108 0.52761-0.48008 0.78652-0.63456 0.97215-1.4426 1.6057-2.3575 2.0014a2.2415 2.2415 0 0 0-0.52607 0.19844c-1.0571 0.34388-2.2303 0.41818-3.4287 0.3607-0.44691-0.021435-0.88201-0.064328-1.2945-0.12041 1.5386-2.0734 2.546-4.1877 3.0112-6.4559 0.82839-4.0395-0.08485-8.2122-1.9358-13.142a2.2415 2.2415 0 0 0-2.8866-1.3126 2.2415 2.2415 0 0 0-1.3105 2.8866c1.7256 4.5964 2.3136 7.8731 1.7405 10.668-0.46707 2.2776-1.7197 4.4711-4.2364 7.027a2.2415 2.2415 0 0 0-0.12919 0.13074c-0.53787 0.53964-1.1323 1.0958-1.787 1.6722-2.6744 2.3548-5.3463 3.8067-7.751 4.6912a2.2415 2.2415 0 0 0-0.75499 0.26252c-4.8294 1.5818-8.4041 0.90744-8.4041 0.90744a2.2417 2.2417 0 0 0-2.4531 1.342s-2.444 5.63-2.9549 10.496c-0.55097 5.2488 1.9223 9.5718 2.2226 20.246 0.21132 7.5106-5.6344 14.387-8.6253 17.408-0.76572 0.73657-1.943 1.8397-1.943 1.8397a2.2417 2.2417 0 0 0 3.0391 3.2809s1.1311-0.98994 2.5993-2.4489c1.9198-1.7724 4.7042-4.1517 8.8558-6.7639 6.748-4.2459 15.558-7.7865 24.076-5.8162 14.961 3.4608 22.316 22.789 22.316 22.789a2.2417 2.2417 0 0 0 2.404 1.4568c3.6146-0.48328 5.4484 0.56336 6.6311 1.635 1.1827 1.0717 1.5353 2.1074 1.5353 2.1074a2.2415 2.2415 0 0 0 1.28 1.3457c-1.5754 1.1652-3.0652 2.4494-4.4555 3.8437-3.7155 3.7147-6.6617 8.1321-8.6553 12.994-1.084 2.7052-1.8661 5.5149-2.3373 8.3778-0.83133-0.61553-1.6536-1.2771-2.3906-1.911-1.9352-1.6647-3.33-3.1016-3.33-3.1016a2.2415 2.2415 0 0 0-3.1703-0.047025 2.2415 2.2415 0 0 0-0.04651 3.1703s1.4722 1.5173 3.5088 3.2784c-1.337 1.2157-3.8039 3.12-7.6145 4.8307-6.208 2.787-15.829 4.9232-29.645 1.9043-9.105-1.9895-17.535-8.6387-23.601-14.891-6.066-6.2518-9.7229-11.949-9.7229-11.949a2.2415 2.2415 0 0 0-0.03979-0.053744 2.2415 2.2415 0 0 0-0.12454-0.16846 2.2415 2.2415 0 0 0-0.05478-0.060461 2.2415 2.2415 0 0 0-0.14211-0.1478 2.2415 2.2415 0 0 0-0.07235-0.061495 2.2415 2.2415 0 0 0-0.15348-0.12247 2.2415 2.2415 0 0 0-0.07854-0.05116 2.2415 2.2415 0 0 0-0.16795-0.10128 2.2415 2.2415 0 0 0-0.0894-0.042892 2.2415 2.2415 0 0 0-0.17312-0.075964 2.2415 2.2415 0 0 0-0.0987-0.032556 2.2415 2.2415 0 0 0-0.18035-0.052194 2.2415 2.2415 0 0 0-0.09819-0.01912 2.2415 2.2415 0 0 0-0.12247-0.024288c-6.4933-0.84698-8.9198-2.7716-10.02-4.4431-1.0998-1.6716-0.96812-3.3221-1.2418-5.2012-0.13638-0.93638 0.09982-2.4801 0.47439-3.6091 0.69839-2.1053 1.3814-4.7264 0.61133-8.1075-2.9629-13.01-0.27485-19.829 2.6035-26.336 2.8147-6.3635 12.648-20.646 18.43-28.617 5.0976-7.0285 9.8463-15.149 12.957-20.934 3.0248-5.6252 5.1767-8.3786 7.012-9.2248 0.43563-0.20084 2.3973-0.92617 4.9217-1.756 2.5244-0.8298 5.7323-1.8276 9.1369-2.822 6.8092-1.9889 14.491-3.9608 18.881-4.5372 0.49821-0.065422 0.97731-0.10425 1.4371-0.11989zm188.41 0.17673c2.7332-0.13096 5.5521 0.11901 6.488 0.39067 1.299 0.37705 7.3215 2.3532 13.059 4.33 2.8686 0.9884 5.7006 1.9868 7.908 2.8045 1.1037 0.40885 2.0538 0.77278 2.758 1.0609 0.59966 0.24537 1.1088 0.50984 1.142 0.5147h5.2e-4l5.1e-4 -5.17e-4v-5.16e-4l-5.1e-4 -5.17e-4c-0.00241-0.002933-0.01228-0.009956-0.02946-0.021188 1.9812 1.2956 5.5357 3.3061 7.6274 8.3401 2.607 6.2741 11.359 20.816 13.976 24.578 1.1834 1.7008 5.1423 7.4013 9.0155 13.965 3.8732 6.5637 7.6144 14.129 8.3964 18.732 0.8629 5.0784 0.6776 9.651 0.2424 13.18-0.2176 1.7645-0.4959 3.2659-0.7385 4.4509-0.2427 1.185-0.4442 1.9488-0.5426 2.7053-0.096 0.7357-0.0104 1.1293 0.0636 1.6914 0.073 0.5621 0.175 1.1978 0.2873 1.91 0.2247 1.4244 0.4883 3.149 0.6134 4.9201 0.2504 3.5423-0.2196 7.0635-1.7772 8.6775-3.8425 3.9816-8.5902 3.9905-8.5902 3.9905a2.2417 2.2417 0 0 0-1.9689 1.1813s-8.9633 16.357-23.611 22.366c-14.533 5.9618-33.594 7.9913-47.166-2.4024 2.8341-2.1982 4.6385-3.8576 4.6385-3.8576a2.2415 2.2415 0 0 0 0.14056-3.1657 2.2415 2.2415 0 0 0-3.1657-0.14056s-1.1321 1.0305-2.9776 2.5192c-0.46148-1.9856-1.074-3.9366-1.8324-5.8348-1.9937-4.862-4.9404-9.2794-8.6558-12.994-1.7966-1.8013-3.7502-3.4098-5.8286-4.8116 0.34197-0.42029 0.75727-0.87393 1.2511-1.3224 1.7472-1.5868 4.2161-2.9869 8.1054-2.4489a2.2415 2.2415 0 0 0 2.4629-1.6077s4.8746-16.725 20.147-22.615c7.041-2.7155 16.242 0.97977 23.744 5.8162 3.0458 1.9634 5.7691 4.0575 7.9303 5.8524 2.8931 2.8839 5.3314 4.8023 5.3314 4.8023a2.2415 2.2415 0 0 0 0.0062 0.0041341 2.2415 2.2415 0 0 0 0.06563 0.045475 2.2415 2.2415 0 0 0 0.1757 0.11937 2.2415 2.2415 0 0 0 0.05633 0.028422 2.2415 2.2415 0 0 0 0.48473 0.20154 2.2415 2.2415 0 0 0 0.02222 0.0046509 2.2415 2.2415 0 0 0 0.26303 0.054777 2.2415 2.2415 0 0 0 0.04961 0.0041342 2.2415 2.2415 0 0 0 0.24495 0.018087 2.2415 2.2415 0 0 0 5.1e-4 0 2.2415 2.2415 0 0 0 0.29197-0.016536 2.2415 2.2415 0 0 0 0.05116-0.0098185 2.2415 2.2415 0 0 0 0.2341-0.044442 2.2415 2.2415 0 0 0 0.08165-0.026355 2.2415 2.2415 0 0 0 0.19998-0.066146 2.2415 2.2415 0 0 0 0.08062-0.038757 2.2415 2.2415 0 0 0 0.17932-0.0863 2.2415 2.2415 0 0 0 0.0987-0.064079 2.2415 2.2415 0 0 0 0.15038-0.099219 2.2415 2.2415 0 0 0 0.04651-0.040308 2.2415 2.2415 0 0 0 0.1757-0.1509 2.2415 2.2415 0 0 0 0.04392-0.049093 2.2415 2.2415 0 0 0 0.14521-0.16175 2.2415 2.2415 0 0 0 0.00259-0.0036173 2.2415 2.2415 0 0 0 0.16639-0.24288 2.2415 2.2415 0 0 0 0.00207-0.0036174 2.2415 2.2415 0 0 0 0.13229-0.26252 2.2415 2.2415 0 0 0 0.15607-0.56327 2.2415 2.2415 0 0 0 0-0.002067 2.2415 2.2415 0 0 0 0.01498-0.1974 2.2415 2.2415 0 0 0 0.0062-0.097668 2.2415 2.2415 0 0 0-0.01188-0.20516 2.2415 2.2415 0 0 0-0.00569-0.088367 2.2415 2.2415 0 0 0-0.03255-0.17363 2.2415 2.2415 0 0 0-0.02429-0.11989 2.2415 2.2415 0 0 0-0.05168-0.15658 2.2415 2.2415 0 0 0-0.04237-0.12247 2.2415 2.2415 0 0 0-0.07648-0.15865 2.2415 2.2415 0 0 0-0.05271-0.10542 2.2415 2.2415 0 0 0-0.0925-0.14108 2.2415 2.2415 0 0 0-0.07338-0.10697 2.2415 2.2415 0 0 0-0.09819-0.1142 2.2415 2.2415 0 0 0-0.08062-0.093534s-2.0125-2.0501-5.2922-4.7852c-0.36559-0.36677-0.73861-0.74977-1.1141-1.1467-3.1951-3.3772-6.4318-7.8377-7.0585-11.142-0.70113-3.6973-0.14365-7.9085 0.6873-11.803s1.956-7.3034 2.0392-10.223c0.18743-6.5778-3.7403-13.48-3.7403-13.48a2.2417 2.2417 0 0 0-1.7849-1.1798s-2.283-0.19606-5.2545-0.88625a2.2415 2.2415 0 0 0-0.02636-0.006201c-0.18965-0.044176-0.38191-0.090221-0.57671-0.13849-3.2599-0.80784-7.0871-2.2656-9.262-4.254-0.33141-0.303-0.63989-0.60633-0.92708-0.91002a2.2415 2.2415 0 0 0-0.14573-0.15606c-2.0837-2.2629-2.9847-4.5654-3.1791-7.137-0.22499-2.9761 0.61169-6.3988 2.264-10.164a2.2415 2.2415 0 0 0-1.1524-2.9528 2.2415 2.2415 0 0 0-1.7151-0.03514 2.2415 2.2415 0 0 0-1.2382 1.187c-1.8252 4.1595-2.9319 8.2657-2.6267 12.303 0.17095 2.2612 0.82065 4.4738 1.9844 6.5546-0.38726-0.01605-0.7917-0.050455-1.2051-0.10955-0.65821-0.094098-1.3175-0.23176-1.959-0.45062a2.2415 2.2415 0 0 0-0.64079-0.25011c-1.0942-0.48375-2.1167-1.2509-2.9698-2.498a2.2415 2.2415 0 0 0-0.24649-0.38189c-0.27862-0.45698-0.53651-0.97165-0.76998-1.5518-3.1053-7.7171 2.2676-16.672 2.2676-16.672a2.2415 2.2415 0 0 0-0.7028-3.0918 2.2415 2.2415 0 0 0-1.6919-0.28732 2.2415 2.2415 0 0 0-1.3999 0.99012s-6.3615 9.7152-3.0065 19.72c-0.52154-0.030175-1.0719-0.072741-1.6283-0.13229-1.3068-0.13987-2.6351-0.38167-3.5843-0.709-0.88247-0.30431-1.2902-0.70553-1.3219-0.71882h-5.2e-4 -5.1e-4 -5.2e-4c-1.2516-2.454-2.455-8.7087 1.7632-16.002 2.3348-4.0366 3.5009-6.5734 4.3651-8.0352s1.143-1.7755 2.6252-2.4691c1.1968-0.56004 4.0618-1.0876 6.7949-1.2185zm16.973 16.905a2.2415 2.2415 0 0 0-2.1472 1.2645s-1.0347 2.0978-1.3028 4.8028c-0.26808 2.705 0.36764 6.4732 3.6897 8.863 3.111 2.238 6.5664 2.5624 9.3121 2.1311s4.7721-1.4374 6.012-2.4143a2.2415 2.2415 0 0 0 0.37465-3.1486 2.2415 2.2415 0 0 0-3.1481-0.37259c-0.32477 0.25589-2.041 1.2101-3.9336 1.5074-1.8926 0.29726-3.9699 0.11693-6.0002-1.3436-1.8193-1.3087-2.0228-2.9751-1.8438-4.7811 0.17899-1.806 0.87695-3.2949 0.87695-3.2949a2.2415 2.2415 0 0 0-1.0428-2.9941 2.2415 2.2415 0 0 0-0.84698-0.21962zm-223.22 1.001a2.2415 2.2415 0 0 0-2.1606 2.3182c0.1053 2.9563-0.53437 4.7867-1.4082 6.0353-0.87381 1.2486-2.0578 1.9976-3.3786 2.4763-2.6416 0.95743-5.5392 0.60151-5.5392 0.60151a2.2415 2.2415 0 0 0-2.5352 1.9043 2.2415 2.2415 0 0 0 1.9043 2.5352s3.7791 0.59377 7.6972-0.82631c1.959-0.71004 4.0266-1.9819 5.5237-4.1212 1.4971-2.1393 2.3487-5.0626 2.2169-8.7633a2.2415 2.2415 0 0 0-2.3203-2.1601zm193.98 15.561c0.38731 0.055684 0.77278 0.10298 1.1529 0.14366 1.8013 0.19278 3.5027 0.22886 4.5806 0.22686 1.0334 1.2303 2.2281 2.1593 3.4675 2.8432 0.51378 5.3835-0.73786 7.8903-2.0795 9.0315-1.4331 1.2191-3.5745 1.2764-5.334 0.67386-2.0242-0.6931-3.3761-1.5811-4.2225-2.6272-0.84638-1.0461-1.3048-2.3059-1.3048-4.2189 0-1.275 0.96533-3.0436 2.1306-4.4158 0.58841-0.69284 1.1739-1.2629 1.6092-1.6573zm-171.67 0.63975c1.2254 0.17272 3.0265 0.33305 4.9506 0.18552 0.38882-0.029814 0.78538-0.071687 1.1865-0.12971 0.41982 0.42912 1.195 2.2192 1.2413 4.2509 0.0465 2.0399-0.49846 4.2574-1.6717 5.812-1.8371 2.4343-6.6291 2.5909-8.7814 0.5023-0.92904-0.90154-1.2194-2.8422-1.0061-4.8147 0.11938-1.1041 0.35734-2.1032 0.54363-2.7693 1.3217-0.66518 2.551-1.6414 3.5373-3.037zm-14.64 3.5362c1.0943 0.30086 2.7332 0.65876 4.5672 0.74672 0.53425 0.025624 1.0978 0.025798 1.6779-0.008785-0.05489 0.33783-0.10349 0.68963-0.14263 1.0516-0.16977 1.5701-0.2061 3.4617 0.3576 5.256-5.7853 1.5164-9.6399 0.56272-12.188-0.70693-0.6921-0.34487-1.2791-0.70806-1.7704-1.0588 2.101-1.0236 4.2787-2.4138 6.4151-4.2948 0.37421-0.32948 0.73523-0.65745 1.0831-0.98495zm205.24 0.50281c0.11888 0.11394 0.23977 0.22706 0.36277 0.33952 2.2454 2.053 5.0794 3.3923 7.8197 4.3181-0.57851 0.39411-1.2492 0.80004-2.0133 1.188-2.8945 1.4698-6.9789 2.6148-12.474 1.5074 0.81974-1.9335 1.2358-4.3585 1.156-7.2988 2.0772 0.29153 3.9551 0.12884 5.1485-0.054261zm36.221 4.9811a2.2415 2.2415 0 0 0-1.3637 0.46612 2.2415 2.2415 0 0 0-0.40618 3.1445s14.659 19.476 13.51 37.605a2.2415 2.2415 0 0 0 2.0939 2.3771 2.2415 2.2415 0 0 0 2.3787-2.0939c1.3094-20.65-14.432-40.625-14.432-40.625a2.2415 2.2415 0 0 0-1.4883-0.85576 2.2415 2.2415 0 0 0-0.29249-0.018603zm-278.87 1.665a2.2415 2.2415 0 0 0-0.29249 0.01602 2.2415 2.2415 0 0 0-1.4945 0.84181s-4.5396 5.7767-8.9059 13.475c-4.3663 7.698-8.7518 17.283-7.9943 25.765a2.2415 2.2415 0 0 0 2.4319 2.0335 2.2415 2.2415 0 0 0 2.033-2.4319c-0.58371-6.5361 3.2456-15.778 7.4295-23.154 4.1839-7.3763 8.5313-12.92 8.5313-12.92a2.2415 2.2415 0 0 0-0.37879-3.1466 2.2415 2.2415 0 0 0-1.3596-0.47852zm262.22 53.369a2.2415 2.2415 0 0 0-2.3182 1.8324c-0.38974 2.1215-0.73252 3.9512-2.1425 6.0921-1.41 2.1409-3.9804 4.6649-9.0702 7.6171-10.402 6.0337-19.848 0.9648-19.848 0.9648a2.2415 2.2415 0 0 0-3.0293 0.93534 2.2415 2.2415 0 0 0 0.93534 3.0293s11.792 6.1387 24.19-1.0526c5.4837-3.1807 8.668-6.1471 10.566-9.0294s2.416-5.6084 2.8086-7.7458a2.2415 2.2415 0 0 0-1.8009-2.6097 2.2415 2.2415 0 0 0-0.29094-0.03359zm-247.24 1.4387a2.2415 2.2415 0 0 0-0.57722 0.097152 2.2415 2.2415 0 0 0-1.4862 2.7988s1.8465 6.0825 7.4042 11.01c5.5577 4.9272 15.049 8.6081 29.139 4.3791a2.2415 2.2415 0 0 0 1.5022-2.7931 2.2415 2.2415 0 0 0-2.791-1.5017c-12.921 3.8785-20.308 0.61096-24.875-3.4375-4.5665-4.0485-6.0921-8.969-6.0921-8.969a2.2415 2.2415 0 0 0-2.2236-1.5834zm265.03 13.693a2.2415 2.2415 0 0 0-2.1508 1.2552c-4.4748 9.1854-10.888 12.799-16.293 14.319-5.4049 1.5191-9.5999 0.81442-9.5999 0.81442a2.2415 2.2415 0 0 0-2.5797 1.8417 2.2415 2.2415 0 0 0 1.8418 2.5802s5.192 0.86526 11.551-0.92191c6.3587-1.7872 14.085-6.3539 19.111-16.67a2.2415 2.2415 0 0 0-1.0351-2.9962 2.2415 2.2415 0 0 0-0.84543-0.22221zm-280.59 2.1105a2.2415 2.2415 0 0 0-1.1358 0.23874 2.2415 2.2415 0 0 0-0.98805 3.0117s8.7743 16.994 28.623 15.795a2.2415 2.2415 0 0 0 2.1032-2.3709 2.2415 2.2415 0 0 0-2.373-2.1037c-17.258 1.0425-24.354-13.344-24.354-13.344a2.2415 2.2415 0 0 0-1.3007-1.1188 2.2415 2.2415 0 0 0-0.57516-0.108zm-15.007 72.004v42.705h48.043c7.2065 0 13.056-0.95624 17.549-2.8691 4.4929-1.9573 7.7181-4.515 9.6754-7.6734 1.9573-3.2029 2.9357-6.8061 2.9357-10.81 0-14.235-10.053-21.353-30.16-21.353h-48.043zm77.87 0 27.025 31.829v10.876h16.682v-10.876l27.024-31.829h-19.685l-15.614 19.818-15.747-19.818h-19.685zm75.735 0v42.705h16.682v-25.489l44.04 25.489h16.682v-42.705h-16.682v25.957l-44.04-25.957h-16.682zm86.745 0v42.705h67.394v-12.678h-50.713v-5.3382h41.371v-6.673h-41.371v-5.3377h50.579v-12.678h-67.26zm-223.67 13.345h30.694c4.8933 0 8.3629 0.64471 10.409 1.9348 2.0463 1.29 3.0696 3.3145 3.0696 6.0725 0 2.758-1.0233 4.7819-3.0696 6.072-2.0463 1.29-5.5159 1.9353-10.409 1.9353h-30.694v-16.015zm201.01 35.966c-10.81 0-18.839 1.2456-24.088 3.7367-5.2492 2.4466-7.8739 6.1829-7.8739 11.21 0 3.9146 2.0244 6.7617 6.0725 8.5411 4.0926 1.7349 10.676 2.6024 19.751 2.6024 6.1388 0 10.788 0.08923 13.946 0.26717 3.2029 0.17794 5.4496 0.51113 6.7396 1.0004 1.3345 0.44485 2.0014 1.0901 2.0014 1.9353s-0.42243 1.5126-1.2676 2.002c-0.80072 0.44484-2.1577 0.77855-4.0706 1.001-1.8683 0.17794-4.4926 0.26665-7.8734 0.26665-5.1157 0-9.2527-0.35589-12.411-1.0676-3.1139-0.75624-4.8933-1.7795-5.3382-3.0696h-18.216c0 3.5143 1.357 6.5615 4.0706 9.1416 2.7136 2.5356 6.6278 4.493 11.743 5.872 5.1157 1.3345 11.166 2.002 18.15 2.002 7.5179 0 13.568-0.51165 18.15-1.5348 4.5819-1.0676 7.9406-2.6913 10.076-4.871 2.1797-2.2242 3.2696-5.16 3.2696-8.8077 0-2.6691-0.86753-4.7822-2.6024-6.3391-1.6904-1.557-4.4261-2.6911-8.2072-3.4029-3.7812-0.71175-8.8971-1.0676-15.347-1.0676-6.0944 0-10.654-0.08924-13.679-0.26717-2.9805-0.17794-5.0714-0.48895-6.2725-0.93379-1.1566-0.44484-1.7348-1.1122-1.7348-2.002 0-1.2011 1.1342-2.0686 3.4029-2.6024 2.3132-0.53382 5.9607-0.80099 10.943-0.80099 4.6709 0 8.3189 0.37858 10.944 1.1348 2.6691 0.75624 4.1148 1.8461 4.3372 3.2696h17.282c0-5.5606-2.7357-9.809-8.2072-12.745-5.4271-2.9805-13.323-4.4705-23.688-4.4705zm-222.07 1.401v42.705h16.682v-21.82l21.353 21.82h20.018l21.353-21.887v21.887h16.682v-42.705h-16.682l-31.429 32.43-31.295-32.43h-16.682zm105.43 0v21.353c0 5.9609 1.6902 10.632 5.071 14.013 3.4253 3.3363 7.9182 5.6274 13.479 6.873 5.605 1.2011 12.211 1.8014 19.818 1.8014 11.433 0 20.663-1.6237 27.692-4.871 7.073-3.2474 10.609-9.186 10.609-17.816v-21.353h-16.682v18.35c0 3.3808-0.84484 5.9612-2.5352 7.7406-1.6904 1.7794-4.0707 2.9801-7.1401 3.6029-3.0694 0.5783-7.0507 0.86765-11.944 0.86765-5.0267 0-9.0745-0.28935-12.144-0.86765-3.0249-0.62278-5.383-1.8235-7.0735-3.6029-1.6459-1.7794-2.4686-4.3598-2.4686-7.7406v-18.35h-16.682zm156.81 0v42.705h6.6063 48.977v-12.678h-38.902v-30.027h-16.682z" stroke-linecap="round" stroke-linejoin="round" stroke-width="4.483" style="paint-order:stroke fill markers"/></g></svg>
